<svg xmlns="http://www.w3.org/2000/svg" xmlns:xlink="http://www.w3.org/1999/xlink" width="500" zoomAndPan="magnify" viewBox="0 0 375 374.999991" height="500" preserveAspectRatio="xMidYMid meet" version="1.0"><path fill="#4bd97b" d="M 359.117188 187.453125 C 359.117188 282.3125 282.21875 359.210938 187.359375 359.210938 C 92.5 359.210938 15.597656 282.3125 15.597656 187.453125 C 15.597656 92.59375 92.5 15.695312 187.359375 15.695312 C 282.21875 15.695312 359.117188 92.59375 359.117188 187.453125 Z M 359.117188 187.453125 " fill-opacity="1" fill-rule="nonzero"/><path fill="#000000" d="M 191.851562 99.359375 C 200.121094 99.359375 207.59375 104.160156 208.476562 113.234375 C 208.476562 113.234375 208.476562 261.855469 208.476562 261.855469 C 207.59375 270.660156 200.121094 274.664062 192.917969 274.664062 C 185.445312 274.664062 177.976562 270.660156 177.976562 261.855469 C 177.976562 261.855469 177.976562 154.058594 177.976562 154.058594 C 177.976562 154.058594 166.5 169.265625 166.5 169.265625 C 163.300781 173.804688 159.03125 175.671875 154.226562 175.671875 C 144.621094 175.671875 136.617188 163.128906 142.753906 153.523438 C 142.753906 153.523438 178.242188 105.226562 178.242188 105.226562 C 181.976562 101.226562 187.3125 99.359375 191.851562 99.359375 Z M 191.851562 99.359375 " fill-opacity="1" fill-rule="nonzero"/></svg>