<svg xmlns="http://www.w3.org/2000/svg" xmlns:xlink="http://www.w3.org/1999/xlink" width="500" zoomAndPan="magnify" viewBox="0 0 375 374.999991" height="500" preserveAspectRatio="xMidYMid meet" version="1.0"><path fill="#4bd97b" d="M 361.644531 187.621094 C 361.644531 283.796875 283.679688 361.765625 187.5 361.765625 C 91.320312 361.765625 13.351562 283.796875 13.351562 187.621094 C 13.351562 91.441406 91.320312 13.476562 187.5 13.476562 C 283.679688 13.476562 361.644531 91.441406 361.644531 187.621094 Z M 361.644531 187.621094 " fill-opacity="1" fill-rule="nonzero"/><path fill="#000000" d="M 192.660156 247.660156 C 192.660156 247.660156 238.703125 247.660156 238.703125 247.660156 C 249.328125 247.660156 255.046875 254.746094 255.046875 261.558594 C 255.046875 268.371094 249.871094 275.183594 238.976562 275.183594 C 238.976562 275.183594 137.902344 275.183594 137.902344 275.183594 C 128.367188 274.367188 122.101562 267.554688 122.101562 259.921875 C 122.101562 256.109375 124.28125 251.75 128.367188 248.476562 C 128.367188 248.476562 204.375 188.800781 204.375 188.800781 C 215.816406 180.625 222.355469 166.726562 220.175781 153.101562 C 217.996094 134.84375 204.101562 126.125 187.757812 126.125 C 171.410156 126.125 158.335938 135.660156 155.066406 151.464844 C 153.976562 159.914062 147.167969 164 140.082031 164 C 131.910156 164 123.464844 158.007812 124.554688 147.652344 C 128.914062 113.859375 155.066406 98.871094 187.757812 98.871094 C 218.816406 98.871094 247.421875 117.402344 250.6875 149.285156 C 253.6875 175.445312 241.972656 195.066406 223.71875 209.507812 C 223.71875 209.507812 173.589844 248.476562 173.589844 248.476562 C 173.589844 248.476562 192.660156 247.660156 192.660156 247.660156 Z M 192.660156 247.660156 " fill-opacity="1" fill-rule="nonzero"/></svg>