<svg xmlns="http://www.w3.org/2000/svg" xmlns:xlink="http://www.w3.org/1999/xlink" width="500" zoomAndPan="magnify" viewBox="0 0 375 374.999991" height="500" preserveAspectRatio="xMidYMid meet" version="1.0"><path fill="#4bd97b" d="M 355.714844 187.496094 C 355.714844 281.125 279.816406 357.023438 186.1875 357.023438 C 92.558594 357.023438 16.660156 281.125 16.660156 187.496094 C 16.660156 93.867188 92.558594 17.96875 186.1875 17.96875 C 279.816406 17.96875 355.714844 93.867188 355.714844 187.496094 Z M 355.714844 187.496094 " fill-opacity="1" fill-rule="nonzero"/><path fill="#000000" d="M 151.390625 220.765625 C 154.03125 244.566406 171.480469 248.53125 187.082031 248.53125 C 206.382812 248.53125 219.335938 233.722656 219.335938 213.359375 C 219.335938 195.90625 207.96875 182.683594 192.898438 182.683594 C 188.929688 182.683594 186.550781 183.210938 183.378906 185.0625 C 171.746094 192.203125 159.847656 183.210938 159.847656 172.632812 C 159.847656 168.929688 161.4375 165.226562 164.871094 161.789062 C 164.871094 161.789062 199.507812 129.789062 199.507812 129.789062 C 199.507812 129.789062 141.871094 129.789062 141.871094 129.789062 C 132.089844 129.789062 127.59375 123.179688 127.59375 116.832031 C 127.59375 110.21875 132.089844 103.609375 141.871094 103.609375 C 141.871094 103.609375 230.175781 103.609375 230.175781 103.609375 C 239.164062 103.609375 246.570312 109.957031 246.570312 117.625 C 246.570312 120.535156 243.660156 125.558594 240.222656 128.996094 C 228.855469 139.308594 216.691406 149.886719 204.796875 160.203125 C 234.140625 162.847656 249.210938 187.441406 249.210938 213.09375 C 249.210938 249.328125 224.359375 274.714844 187.34375 274.714844 C 154.824219 274.714844 126.535156 261.753906 122.304688 224.464844 C 122.570312 215.738281 130.238281 209.390625 137.375 209.390625 C 143.984375 209.390625 151.125 213.625 151.390625 220.765625 Z M 151.390625 220.765625 " fill-opacity="1" fill-rule="nonzero"/></svg>