<?xml version="1.0" encoding="UTF-8"?>
<svg xmlns="http://www.w3.org/2000/svg" xmlns:xlink="http://www.w3.org/1999/xlink" width="20px" height="20px" viewBox="0 0 20 20" version="1.1">
<g id="surface1">
<path style=" stroke:none;fill-rule:evenodd;fill:rgb(0%,0%,0%);fill-opacity:1;" d="M 1.25 3.75 C 1.25 3.289062 1.625 2.917969 2.082031 2.917969 L 5.417969 2.917969 C 5.875 2.917969 6.25 3.289062 6.25 3.75 L 6.25 5.417969 C 6.25 5.613281 6.386719 5.78125 6.578125 5.824219 C 8.226562 3.40625 11.257812 2.347656 14.050781 3.210938 C 16.84375 4.074219 18.75 6.660156 18.75 9.582031 L 18.75 16.25 C 18.75 16.710938 18.375 17.082031 17.917969 17.082031 L 14.582031 17.082031 C 14.125 17.082031 13.75 16.710938 13.75 16.25 L 13.75 9.582031 C 13.75 8.664062 13.003906 7.917969 12.082031 7.917969 C 11.164062 7.917969 10.417969 8.664062 10.417969 9.582031 L 10.417969 16.25 C 10.417969 16.710938 10.042969 17.082031 9.582031 17.082031 L 6.25 17.082031 C 5.789062 17.082031 5.417969 16.710938 5.417969 16.25 L 5.417969 10 L 5 10 C 2.929688 10 1.25 8.320312 1.25 6.25 Z M 2.917969 4.582031 L 2.917969 6.25 C 2.917969 7.402344 3.847656 8.332031 5 8.332031 L 6.265625 8.332031 C 6.496094 8.332031 6.714844 8.429688 6.875 8.597656 C 7.03125 8.769531 7.113281 8.996094 7.097656 9.226562 C 7.085938 9.34375 7.082031 9.460938 7.082031 9.582031 L 7.082031 15.417969 L 8.75 15.417969 L 8.75 9.582031 C 8.75 7.742188 10.242188 6.25 12.082031 6.25 C 13.925781 6.25 15.417969 7.742188 15.417969 9.582031 L 15.417969 15.417969 L 17.082031 15.417969 L 17.082031 9.582031 C 17.085938 7.320312 15.5625 5.335938 13.378906 4.75 C 11.191406 4.164062 8.882812 5.121094 7.75 7.082031 C 7.601562 7.339844 7.328125 7.5 7.03125 7.5 L 6.667969 7.5 C 5.515625 7.5 4.582031 6.566406 4.582031 5.417969 L 4.582031 4.582031 Z M 2.917969 4.582031 "/>
</g>
</svg>
