<?xml version="1.0" encoding="UTF-8"?>
<svg xmlns="http://www.w3.org/2000/svg" xmlns:xlink="http://www.w3.org/1999/xlink" width="20px" height="20px" viewBox="0 0 20 20" version="1.1">
<g id="surface1">
<path style=" stroke:none;fill-rule:nonzero;fill:rgb(0%,0%,0%);fill-opacity:1;" d="M 8.261719 5.039062 C 8.019531 2.292969 5.15625 0.945312 5.035156 0.890625 C 4.921875 0.839844 4.792969 0.820312 4.671875 0.84375 C 1.363281 1.390625 0.867188 3.316406 0.847656 3.394531 C 0.820312 3.507812 0.824219 3.625 0.859375 3.734375 C 4.804688 15.972656 13.003906 18.242188 15.699219 18.988281 C 15.90625 19.046875 16.078125 19.09375 16.207031 19.136719 C 16.355469 19.183594 16.515625 19.175781 16.65625 19.109375 C 16.738281 19.070312 18.6875 18.152344 19.164062 15.160156 C 19.183594 15.03125 19.164062 14.898438 19.105469 14.777344 C 19.0625 14.695312 18.042969 12.757812 15.21875 12.074219 C 15.023438 12.023438 14.816406 12.070312 14.664062 12.203125 C 13.773438 12.964844 12.542969 13.777344 12.011719 13.859375 C 8.449219 12.117188 6.460938 8.777344 6.386719 8.144531 C 6.34375 7.789062 7.160156 6.535156 8.097656 5.519531 C 8.21875 5.390625 8.277344 5.214844 8.261719 5.039062 Z M 8.261719 5.039062 "/>
</g>
</svg>
