<?xml version="1.0" encoding="UTF-8"?>
<svg xmlns="http://www.w3.org/2000/svg" xmlns:xlink="http://www.w3.org/1999/xlink" width="20px" height="20px" viewBox="0 0 20 20" version="1.1">
<g id="surface1">
<path style=" stroke:none;fill-rule:nonzero;fill:rgb(0%,0%,0%);fill-opacity:1;" d="M 8.726562 13.925781 C 8.878906 13.753906 9.101562 13.648438 9.347656 13.648438 C 9.808594 13.648438 10.183594 14.019531 10.183594 14.484375 C 10.183594 14.492188 10.183594 14.503906 10.183594 14.511719 L 10.035156 18.5625 C 10.019531 19.011719 9.648438 19.371094 9.199219 19.371094 C 9.148438 19.371094 9.101562 19.367188 9.054688 19.359375 L 9.0625 19.359375 C 7.960938 19.171875 6.980469 18.757812 6.128906 18.171875 L 6.15625 18.1875 C 5.933594 18.035156 5.792969 17.78125 5.792969 17.5 C 5.792969 17.28125 5.875 17.085938 6.007812 16.9375 L 8.722656 13.921875 Z M 8.03125 12.769531 L 4.09375 13.753906 C 4.035156 13.769531 3.964844 13.777344 3.894531 13.777344 C 3.464844 13.777344 3.109375 13.453125 3.0625 13.039062 L 3.0625 13.035156 C 3.03125 12.792969 3.015625 12.511719 3.015625 12.226562 C 3.015625 11.398438 3.15625 10.601562 3.410156 9.863281 L 3.398438 9.914062 C 3.511719 9.578125 3.824219 9.34375 4.1875 9.34375 C 4.324219 9.34375 4.449219 9.375 4.5625 9.429688 L 4.554688 9.429688 L 8.203125 11.207031 C 8.484375 11.347656 8.671875 11.632812 8.671875 11.960938 C 8.671875 12.351562 8.40625 12.675781 8.046875 12.769531 Z M 8.703125 9.515625 L 4.886719 2.90625 C 4.816406 2.785156 4.777344 2.640625 4.777344 2.488281 C 4.777344 2.15625 4.96875 1.871094 5.246094 1.734375 L 5.25 1.734375 C 6.449219 1.148438 7.847656 0.753906 9.320312 0.632812 L 9.363281 0.632812 C 9.382812 0.628906 9.40625 0.628906 9.425781 0.628906 C 9.890625 0.628906 10.261719 1.003906 10.261719 1.464844 L 10.261719 9.09375 C 10.261719 9.558594 9.890625 9.929688 9.425781 9.929688 C 9.117188 9.929688 8.851562 9.765625 8.703125 9.515625 L 8.703125 9.511719 Z M 12.449219 12.925781 L 16.308594 14.179688 C 16.648438 14.292969 16.886719 14.605469 16.886719 14.976562 C 16.886719 15.105469 16.855469 15.230469 16.804688 15.339844 L 16.804688 15.335938 C 16.332031 16.316406 15.679688 17.140625 14.886719 17.800781 L 14.875 17.8125 C 14.730469 17.929688 14.546875 18.003906 14.34375 18.003906 C 14.046875 18.003906 13.78125 17.847656 13.632812 17.613281 L 13.632812 17.609375 L 11.476562 14.164062 C 11.398438 14.039062 11.351562 13.886719 11.351562 13.722656 C 11.351562 13.261719 11.722656 12.886719 12.183594 12.886719 C 12.277344 12.886719 12.367188 12.902344 12.449219 12.929688 L 12.441406 12.925781 Z M 16.375 10.464844 L 12.472656 11.582031 C 12.402344 11.605469 12.324219 11.617188 12.242188 11.617188 C 11.78125 11.617188 11.40625 11.242188 11.40625 10.78125 C 11.40625 10.605469 11.460938 10.441406 11.554688 10.308594 L 13.820312 6.945312 C 13.972656 6.722656 14.226562 6.578125 14.515625 6.578125 C 14.726562 6.578125 14.921875 6.65625 15.070312 6.785156 C 15.851562 7.476562 16.476562 8.320312 16.898438 9.277344 L 16.914062 9.324219 C 16.957031 9.421875 16.984375 9.539062 16.984375 9.660156 C 16.984375 10.039062 16.730469 10.359375 16.386719 10.460938 L 16.378906 10.464844 Z M 16.375 10.464844 "/>
</g>
</svg>
